<svg version="1.1" id="Layer_1" xmlns="http://www.w3.org/2000/svg" xmlns:xlink="http://www.w3.org/1999/xlink" x="0px" y="0px"
	 width="100%" viewBox="0 0 1024 1024" enable-background="new 0 0 1024 1024" xml:space="preserve">
<path fill="#12C9F0" opacity="1.000000" stroke="none" 
	d="
M684.000000,1025.000000 
	C456.000000,1025.000000 228.500000,1025.000000 1.000000,1025.000000 
	C1.000000,683.666687 1.000000,342.333344 1.000000,1.000000 
	C342.333344,1.000000 683.666687,1.000000 1025.000000,1.000000 
	C1025.000000,342.333344 1025.000000,683.666687 1025.000000,1025.000000 
	C911.500000,1025.000000 798.000000,1025.000000 684.000000,1025.000000 
M381.351837,471.701294 
	C381.351837,471.701294 381.329926,471.590851 381.529907,472.106201 
	C381.838104,472.293182 382.146332,472.480133 382.323578,472.701904 
	C382.323578,472.701904 382.308228,472.567291 382.456909,473.073822 
	C382.724274,473.280365 382.991608,473.486908 383.588837,473.766083 
	C383.588837,473.766083 383.888733,473.921509 384.493683,473.707947 
	C384.767151,473.381012 385.040619,473.054077 385.655334,472.042999 
	C385.768188,469.894287 385.977173,467.745728 385.979797,465.596863 
	C386.038391,417.725739 386.074249,369.854553 387.034698,321.902466 
	C389.031494,321.887299 391.028473,321.845551 393.025024,321.860779 
	C438.088959,322.204437 483.152832,322.554352 528.661194,322.948090 
	C528.661194,322.948090 529.093140,323.062439 529.752380,323.434052 
	C536.721436,324.802124 543.681152,326.220001 550.663147,327.518555 
	C554.509705,328.234009 558.393433,328.749023 562.564514,329.293640 
	C562.564514,329.293640 562.765930,329.529358 562.690430,329.922394 
	C562.711853,330.211792 562.854919,330.415649 563.848389,330.808136 
	C569.422241,332.678192 575.191589,334.109283 580.537720,336.490631 
	C611.712402,350.376465 635.638062,372.441467 653.100586,401.644012 
	C666.274597,423.674957 673.472351,447.645111 675.752441,473.602142 
	C676.156616,480.518097 677.113464,487.455017 676.851929,494.345703 
	C676.275696,509.527954 675.116882,524.688904 674.123413,539.853882 
	C673.856262,543.931641 673.328857,547.992371 672.992737,552.835632 
	C666.851074,578.629700 655.653198,601.945740 638.589539,622.304565 
	C623.454102,640.362671 605.412720,654.649414 583.570251,663.882629 
	C570.524536,669.397339 557.439209,674.751526 542.578796,675.894348 
	C535.778564,676.276245 528.978271,676.658142 521.381531,676.726379 
	C518.914978,676.489502 516.446777,676.030457 513.982178,676.049133 
	C477.057465,676.328003 440.133575,676.726257 403.208557,676.938354 
	C397.462067,676.971375 391.711090,676.222046 385.962189,675.834473 
	C385.975983,675.383789 385.989777,674.933167 386.003571,674.482483 
	C387.744598,674.191223 389.485657,673.899963 391.226685,673.608704 
	C387.481140,673.353638 384.885956,672.888550 384.912384,667.942322 
	C385.093903,633.987122 385.055054,600.030212 384.940857,566.074463 
	C384.927460,562.092346 386.388062,560.885620 390.217346,560.942078 
	C401.866455,561.113708 413.520081,561.049500 425.170929,560.952820 
	C427.086517,560.936829 428.996918,560.293274 430.943237,559.371887 
	C430.963226,559.183411 430.983246,558.994873 430.664062,558.253113 
	C392.669861,517.195923 354.675659,476.138702 316.437317,434.817688 
	C315.766754,435.639038 315.257324,436.294373 314.715637,436.921875 
	C284.901703,471.460083 255.068634,505.981781 225.284409,540.545593 
	C220.101532,546.560120 215.123398,552.751099 210.147980,559.429260 
	C221.578003,559.618225 233.007507,559.851624 244.438217,559.980713 
	C252.020569,560.066345 252.026855,559.999512 252.027054,567.585876 
	C252.029083,644.651855 252.020096,721.717834 252.071594,798.783813 
	C252.073212,801.201416 252.692978,803.618713 252.969421,806.012207 
	C252.969421,806.012207 253.000961,805.961060 253.032669,806.626343 
	C253.021362,807.070007 253.010071,807.513611 253.674011,808.442566 
	C260.099518,808.311951 266.525024,808.181335 273.728546,808.024048 
	C274.506744,808.035583 275.284943,808.047119 276.743622,808.500427 
	C278.386810,808.668579 280.029968,808.983215 281.673218,808.983826 
	C348.839813,809.009277 416.006378,809.014587 483.172943,808.966797 
	C485.104187,808.965454 487.034943,808.363586 489.861572,808.005798 
	C492.253174,808.018127 494.644775,808.030457 497.721008,808.489929 
	C504.772980,808.660217 511.825226,808.960388 518.876770,808.944580 
	C522.260986,808.937012 525.643799,808.332092 529.677063,807.974304 
	C530.110413,807.979431 530.543823,807.984558 531.218384,808.183472 
	C531.218384,808.183472 531.655090,808.197510 531.655090,808.197510 
	C531.655090,808.197510 531.992737,807.894470 532.691101,807.471985 
	C536.124939,807.308960 539.560669,807.171021 542.988403,806.923950 
	C543.206360,806.908203 543.363159,806.044312 544.354736,805.262695 
	C565.471191,803.023804 586.775391,801.912170 607.083008,794.816711 
	C617.108337,791.313904 627.372070,788.370422 637.119507,784.215576 
	C698.310608,758.133179 745.042358,715.774292 777.666138,657.903564 
	C789.734497,636.495728 799.518250,614.047913 805.146118,590.018188 
	C808.102661,577.394226 810.450378,564.627625 813.711426,551.595459 
	C814.135010,550.569336 814.840210,549.569336 814.937988,548.513062 
	C815.762451,539.605164 816.475952,530.687012 817.591064,521.094177 
	C817.711243,507.482635 817.872559,493.871063 817.872009,480.259521 
	C817.871948,479.195007 816.741211,478.130554 815.967224,476.168304 
	C815.302002,467.899170 814.636719,459.630005 813.982849,451.412201 
	C813.982849,451.412201 813.972961,451.463806 813.746460,450.867004 
	C813.758362,450.449554 813.770264,450.032135 813.859253,448.636749 
	C813.860596,446.818542 814.185608,444.930725 813.812134,443.193085 
	C810.828796,429.314972 807.790833,415.447113 804.558472,401.625519 
	C804.046265,399.435516 802.474609,397.493317 801.059021,394.672729 
	C796.639038,383.104736 792.926758,371.204681 787.680847,360.024200 
	C759.660400,300.304016 717.295349,253.995438 658.278748,223.634583 
	C640.056641,214.260300 620.833496,207.484421 600.615112,202.125549 
	C599.590820,201.643005 598.610107,200.894455 597.535583,200.718277 
	C583.782532,198.462891 570.043030,196.092911 556.238647,194.199768 
	C551.284302,193.520340 546.165527,194.040634 540.240601,194.113876 
	C538.472656,194.030716 536.704651,193.947571 534.613281,193.179825 
	C532.733521,192.796387 530.854004,192.078705 528.973938,192.077454 
	C437.875061,192.016800 346.776093,192.010635 255.677185,192.062073 
	C253.778061,192.063141 251.879349,192.810501 250.031845,192.935318 
	C250.031845,192.935318 250.306549,192.985107 249.761734,193.637772 
	C249.515396,195.250061 249.054092,196.862274 249.053513,198.474655 
	C249.020721,289.162415 249.020142,379.850220 249.074905,470.537964 
	C249.075943,472.256409 249.776505,473.974457 250.707047,475.399658 
	C251.456177,474.748718 252.303635,474.181519 252.939835,473.434387 
	C265.132843,459.116058 277.295532,444.771851 289.476227,430.442993 
	C298.504089,419.823090 307.548737,409.217468 317.505859,397.525208 
	C326.653503,408.201569 335.345703,418.346405 344.176880,429.183472 
	C344.823364,429.775421 345.469849,430.367371 346.044891,430.960022 
	C346.044891,430.960022 346.049408,430.888672 346.187042,431.508331 
	C346.808289,432.006866 347.429565,432.505432 347.989960,433.014404 
	C347.989960,433.014404 347.991089,432.952698 348.158508,433.543671 
	C348.557983,433.980804 348.957489,434.417908 349.205963,434.824921 
	C349.205963,434.824921 349.248047,434.676788 349.312500,435.335114 
	C349.954865,435.844208 350.597229,436.353333 351.112213,436.892090 
	C351.112213,436.892090 351.089355,436.763336 351.336914,437.265167 
	C351.639709,437.472778 351.942535,437.680389 352.137756,437.890778 
	C352.137756,437.890778 352.143127,437.783325 352.244080,438.451843 
	C352.990387,439.165649 353.736694,439.879456 354.418549,440.647888 
	C354.418549,440.647888 354.390228,440.568268 354.534637,441.105713 
	C354.812805,441.339813 355.091003,441.573914 355.196716,441.823669 
	C355.196716,441.823669 355.193115,441.650543 355.438812,442.160797 
	C355.740387,442.379974 356.041962,442.599152 356.183960,442.817383 
	C356.183960,442.817383 356.196716,442.658295 356.415253,443.181061 
	C356.705231,443.414825 356.995239,443.648590 357.127197,443.878754 
	C357.127197,443.878754 357.138855,443.721100 357.357391,444.239166 
	C357.645264,444.471069 357.933105,444.702942 358.075806,444.953186 
	C358.075806,444.953186 358.061310,444.807587 358.309052,445.278961 
	C358.569763,445.514923 358.830475,445.750885 359.020233,445.942047 
	C359.020233,445.942047 359.066315,445.871918 359.171936,446.496033 
	C359.788177,446.999756 360.404419,447.503479 360.986694,448.008331 
	C360.986694,448.008331 360.996185,447.975739 361.085785,448.626068 
	C361.841370,449.349731 362.596954,450.073395 363.249512,450.799347 
	C363.249512,450.799347 363.261932,450.697083 363.329773,451.344971 
	C363.949493,451.866455 364.569183,452.387939 365.096375,452.905975 
	C365.096375,452.905975 365.105988,452.813873 365.208405,453.399414 
	C365.665619,453.698944 366.122833,453.998474 366.730072,454.337402 
	C366.730072,454.337402 366.735657,454.492432 366.672943,455.164520 
	C367.883362,456.390198 369.093781,457.615906 370.153473,458.868652 
	C370.153473,458.868652 370.135437,458.716644 370.347656,459.227264 
	C370.613373,459.475006 370.879089,459.722778 371.041595,459.969910 
	C371.041595,459.969910 371.044495,459.866730 371.292053,460.339508 
	C371.574402,460.550140 371.856720,460.760773 372.046783,460.950806 
	C372.046783,460.950806 372.070312,460.859222 372.168549,461.520966 
	C372.957642,462.137939 373.746735,462.754913 374.628662,463.418152 
	C374.628662,463.418152 374.619385,463.521454 374.606567,464.232880 
	C375.830841,465.405701 377.055084,466.578522 378.100861,467.928009 
	C378.100861,467.928009 378.250977,467.726654 378.277069,468.405548 
	C379.039581,469.048401 379.802094,469.691254 380.688873,470.393646 
	C380.688873,470.393646 380.668640,470.529938 380.698853,471.037842 
	C380.951447,471.245331 381.204041,471.452789 381.351837,471.701294 
z"/>
<path fill="#FEFFFF" opacity="1.000000" stroke="none" 
	d="
M543.119080,675.998535 
	C557.439209,674.751526 570.524536,669.397339 583.570251,663.882629 
	C605.412720,654.649414 623.454102,640.362671 638.589539,622.304565 
	C655.653198,601.945740 666.851074,578.629700 673.061646,552.070740 
	C678.508179,528.917053 678.956543,506.206970 677.476868,483.383942 
	C677.252930,479.929840 676.623169,476.502075 676.181091,473.062134 
	C673.472351,447.645111 666.274597,423.674957 653.100586,401.644012 
	C635.638062,372.441467 611.712402,350.376465 580.537720,336.490631 
	C575.191589,334.109283 569.422241,332.678192 563.518860,330.482788 
	C563.168518,329.867249 563.027405,329.657898 562.765930,329.529358 
	C562.765930,329.529358 562.564514,329.293640 562.102112,329.152130 
	C557.314453,327.850342 553.045227,326.366028 548.650696,325.606323 
	C542.178345,324.487366 535.616760,323.884888 529.093140,323.062439 
	C529.093140,323.062439 528.661194,322.948090 528.203979,322.598053 
	C523.961975,321.804657 520.178162,320.984650 516.392334,320.975586 
	C473.791138,320.873352 431.189667,320.892212 388.588257,320.900421 
	C387.170746,320.900696 385.753296,321.132080 384.106964,321.275696 
	C384.106964,323.210815 384.106689,324.691467 384.107025,326.172089 
	C384.116241,366.279449 384.140717,406.386841 384.123352,446.494202 
	C384.119385,455.636658 383.970764,464.779083 383.888733,473.921509 
	C383.888733,473.921509 383.588837,473.766083 383.358063,473.476624 
	C382.854279,472.980560 382.581238,472.773926 382.308228,472.567291 
	C382.308228,472.567291 382.323578,472.701904 382.292938,472.418823 
	C381.951508,471.954132 381.640717,471.772491 381.329926,471.590851 
	C381.329926,471.590851 381.351837,471.701294 381.367249,471.436310 
	C381.222961,470.870300 380.984955,470.656525 380.668640,470.529938 
	C380.668640,470.529938 380.688873,470.393646 380.488129,470.100464 
	C379.608582,469.113739 378.929779,468.420197 378.250977,467.726654 
	C378.250977,467.726654 378.100861,467.928009 378.068573,467.546997 
	C376.897308,465.951141 375.758331,464.736298 374.619385,463.521454 
	C374.619385,463.521454 374.628662,463.418152 374.432251,463.131836 
	C373.513977,462.183441 372.792145,461.521332 372.070312,460.859222 
	C372.070312,460.859222 372.046783,460.950806 372.012909,460.689697 
	C371.667542,460.241272 371.356018,460.053986 371.044495,459.866730 
	C371.044495,459.866730 371.041595,459.969910 371.045959,459.679810 
	C370.745392,459.165344 370.440399,458.941010 370.135437,458.716644 
	C370.135437,458.716644 370.153473,458.868652 370.106934,458.555786 
	C368.952179,456.992767 367.843933,455.742584 366.735657,454.492432 
	C366.735657,454.492432 366.730072,454.337402 366.518158,454.083801 
	C365.906158,453.491455 365.506073,453.152679 365.105988,452.813873 
	C365.105988,452.813873 365.096375,452.905975 365.054871,452.615723 
	C364.429565,451.782684 363.845734,451.239868 363.261932,450.697083 
	C363.261932,450.697083 363.249512,450.799347 363.201233,450.497589 
	C362.434052,449.455780 361.715118,448.715759 360.996185,447.975739 
	C360.996185,447.975739 360.986694,448.008331 360.911835,447.721344 
	C360.246765,446.913544 359.656525,446.392731 359.066315,445.871918 
	C359.066315,445.871918 359.020233,445.942047 359.002014,445.682892 
	C358.676270,445.218353 358.368805,445.012970 358.061310,444.807587 
	C358.061310,444.807587 358.075806,444.953186 358.068359,444.662262 
	C357.753540,444.154602 357.446198,443.937836 357.138855,443.721100 
	C357.138855,443.721100 357.127197,443.878754 357.132355,443.592590 
	C356.823914,443.090393 356.510315,442.874359 356.196716,442.658295 
	C356.196716,442.658295 356.183960,442.817383 356.179443,442.531311 
	C355.847656,442.047028 355.520386,441.848785 355.193115,441.650543 
	C355.193115,441.650543 355.196716,441.823669 355.220886,441.537842 
	C354.960144,441.024078 354.675171,440.796173 354.390228,440.568268 
	C354.390228,440.568268 354.418549,440.647888 354.335754,440.328003 
	C353.549683,439.266510 352.846405,438.524902 352.143127,437.783325 
	C352.143127,437.783325 352.137756,437.890778 352.085449,437.623718 
	C351.718536,437.158905 351.403961,436.961121 351.089355,436.763336 
	C351.089355,436.763336 351.112213,436.892090 351.085327,436.581116 
	C350.454956,435.739014 349.851501,435.207916 349.248047,434.676788 
	C349.248047,434.676788 349.205963,434.824921 349.218445,434.533142 
	C348.817627,433.811798 348.404358,433.382263 347.991089,432.952698 
	C347.991089,432.952698 347.989960,433.014404 347.897461,432.735382 
	C347.219757,431.933807 346.634583,431.411224 346.049408,430.888672 
	C346.049408,430.888672 346.044891,430.960022 345.980591,430.646667 
	C345.290161,429.719269 344.664032,429.105255 344.037903,428.491241 
	C335.345703,418.346405 326.653503,408.201569 317.505859,397.525208 
	C307.548737,409.217468 298.504089,419.823090 289.476227,430.442993 
	C277.295532,444.771851 265.132843,459.116058 252.939835,473.434387 
	C252.303635,474.181519 251.456177,474.748718 250.447296,475.112061 
	C250.221649,471.659882 250.285217,468.495300 250.285599,465.330719 
	C250.296478,374.548859 250.300995,283.766968 250.306549,192.985107 
	C250.306549,192.985107 250.031845,192.935318 250.484589,193.087952 
	C251.767532,193.199539 252.597778,193.122345 253.427979,193.122543 
	C313.346832,193.136887 373.265808,193.083359 433.184448,193.206131 
	C467.102173,193.275635 501.019318,193.635391 534.936707,193.864410 
	C536.704651,193.947571 538.472656,194.030716 541.060486,194.168365 
	C561.552795,197.062088 581.225220,199.901337 600.897644,202.740585 
	C620.833496,207.484421 640.056641,214.260300 658.278748,223.634583 
	C717.295349,253.995438 759.660400,300.304016 787.680847,360.024200 
	C792.926758,371.204681 796.639038,383.104736 801.302307,395.359863 
	C802.668762,399.854248 804.028015,403.609924 804.872803,407.477966 
	C807.935913,421.503174 810.826477,435.566040 813.782166,449.614685 
	C813.770264,450.032135 813.758362,450.449554 813.854065,451.120453 
	C813.961670,451.373901 813.971436,451.360870 813.971436,451.360870 
	C814.636719,459.630005 815.302002,467.899170 815.994385,477.036926 
	C816.369263,488.973389 816.717041,500.041199 816.959717,511.495850 
	C815.594055,525.230286 814.333557,538.577881 813.072998,551.925476 
	C810.450378,564.627625 808.102661,577.394226 805.146118,590.018188 
	C799.518250,614.047913 789.734497,636.495728 777.666138,657.903564 
	C745.042358,715.774292 698.310608,758.133179 637.119507,784.215576 
	C627.372070,788.370422 617.108337,791.313904 607.083008,794.816711 
	C586.775391,801.912170 565.471191,803.023804 543.511597,805.366821 
	C529.977234,805.865723 517.286133,806.260559 504.339172,806.524414 
	C503.530273,806.477234 502.977112,806.561096 501.941040,806.539551 
	C497.848083,806.497681 494.238129,806.561218 490.432068,806.507446 
	C489.909637,806.313354 489.628204,806.393921 488.908264,806.530396 
	C467.841431,806.501892 447.257935,806.574646 426.586792,806.558594 
	C426.499115,806.469666 426.327728,806.651306 425.848816,806.548401 
	C419.441223,806.511780 413.512543,806.578064 407.285950,806.512817 
	C406.136566,806.465881 405.285156,806.550537 403.949310,806.529053 
	C400.167633,806.494446 396.870361,806.566040 393.211060,806.505981 
	C391.044739,806.463318 389.240540,806.552246 386.952209,806.534790 
	C383.174622,806.495544 379.881195,806.562622 376.224670,806.497681 
	C374.058105,806.462708 372.254578,806.559753 369.975555,806.550476 
	C368.208588,806.504517 366.917114,806.564941 365.431885,806.506409 
	C364.913879,806.308411 364.633636,806.386902 363.921936,806.519836 
	C361.186462,806.491699 358.926453,806.566589 356.582825,806.552002 
	C356.499268,806.462646 356.330963,806.640381 355.852600,806.535278 
	C351.441650,806.500061 347.509094,806.569946 343.250427,806.506104 
	C341.760895,806.459167 340.597504,806.545959 338.976379,806.540833 
	C337.903381,806.516663 337.288055,806.584412 336.586670,806.562012 
	C336.500580,806.471863 336.328247,806.651917 335.850037,806.545227 
	C321.785675,806.505188 308.199524,806.571777 294.420715,806.518250 
	C293.903839,806.318298 293.623779,806.396667 292.923798,806.529419 
	C291.516846,806.493652 290.573914,806.561707 289.434753,806.511230 
	C288.911407,806.314514 288.628967,806.394592 287.908447,806.528442 
	C275.950775,806.269714 264.475861,806.115356 253.000961,805.961060 
	C253.000961,805.961060 252.969421,806.012207 253.015076,805.551697 
	C253.060715,723.082092 253.060715,641.072937 253.060715,558.860596 
	C238.326508,558.860596 224.188599,558.860596 210.050705,558.860596 
	C215.123398,552.751099 220.101532,546.560120 225.284409,540.545593 
	C255.068634,505.981781 284.901703,471.460083 314.715637,436.921875 
	C315.257324,436.294373 315.766754,435.639038 316.437317,434.817688 
	C354.675659,476.138702 392.669861,517.195923 430.369629,558.617554 
	C414.483856,558.981995 398.892517,558.981995 383.114868,558.981995 
	C382.989014,559.975220 382.841034,560.598694 382.840851,561.222229 
	C382.830078,599.473633 382.823273,637.725098 382.878510,675.976440 
	C382.879883,676.927063 383.580017,677.876587 384.420532,678.906372 
	C408.936218,678.931458 432.985535,678.876709 457.497833,678.880127 
	C476.964203,678.907715 495.967651,678.877136 515.431519,678.926636 
	C524.967651,678.003967 534.043396,677.001221 543.119080,675.998535 
z"/>
<path fill="#03A8D7" opacity="1.000000" stroke="none" 
	d="
M289.630981,806.629761 
	C290.573914,806.561707 291.516846,806.493652 293.022827,806.625671 
	C293.928375,806.763306 294.270905,806.700867 294.613403,806.638428 
	C308.199524,806.571777 321.785675,806.505188 335.871307,806.606934 
	C336.370819,806.775330 336.672729,806.652100 336.672729,806.652100 
	C337.288055,806.584412 337.903381,806.516663 339.210510,806.655029 
	C341.127045,806.787415 342.351807,806.713623 343.576538,806.639771 
	C347.509094,806.569946 351.441650,806.500061 355.871887,806.597656 
	C356.369568,806.765015 356.666412,806.641479 356.666412,806.641479 
	C358.926453,806.566589 361.186462,806.491699 364.019714,806.618469 
	C364.937195,806.755249 365.281403,806.690308 365.625641,806.625366 
	C366.917114,806.564941 368.208588,806.504517 370.255859,806.662659 
	C372.870361,806.797424 374.729034,806.713562 376.587738,806.629761 
	C379.881195,806.562622 383.174622,806.495544 387.232239,806.650696 
	C389.855316,806.794556 391.714233,806.716125 393.573120,806.637695 
	C396.870361,806.566040 400.167633,806.494446 404.150024,806.640564 
	C405.751404,806.786926 406.667664,806.715576 407.583893,806.644287 
	C413.512543,806.578064 419.441223,806.511780 425.871216,806.610107 
	C426.372559,806.774719 426.674469,806.647461 426.674469,806.647461 
	C447.257935,806.574646 467.841431,806.501892 489.008850,806.626770 
	C489.937927,806.757935 490.283020,806.691345 490.628143,806.624817 
	C494.238129,806.561218 497.848083,806.497681 502.098206,806.645386 
	C503.357239,806.789673 503.976105,806.722595 504.594971,806.655518 
	C517.286133,806.260559 529.977234,805.865723 543.108398,805.522949 
	C543.363159,806.044312 543.206360,806.908203 542.988403,806.923950 
	C539.560669,807.171021 536.124939,807.308960 532.088013,807.708252 
	C531.315735,807.959595 531.146423,807.974609 530.977173,807.989685 
	C530.543823,807.984558 530.110413,807.979431 528.880493,807.976501 
	C517.734680,808.000061 507.385529,808.021423 497.036377,808.042786 
	C494.644775,808.030457 492.253174,808.018127 488.949127,808.012451 
	C417.378845,808.032349 346.720978,808.045532 276.063141,808.058655 
	C275.284943,808.047119 274.506744,808.035583 272.876892,808.022339 
	C265.683105,807.999573 259.340912,807.978394 252.998749,807.957275 
	C253.010071,807.513611 253.021362,807.070007 253.016815,806.293701 
	C264.475861,806.115356 275.950775,806.269714 288.008972,806.625000 
	C288.938538,806.760559 289.284760,806.695190 289.630981,806.629761 
z"/>
<path fill="#04CFFB" opacity="1.000000" stroke="none" 
	d="
M430.909698,559.939697 
	C428.996918,560.293274 427.086517,560.936829 425.170929,560.952820 
	C413.520081,561.049500 401.866455,561.113708 390.217346,560.942078 
	C386.388062,560.885620 384.927460,562.092346 384.940857,566.074463 
	C385.055054,600.030212 385.093903,633.987122 384.912384,667.942322 
	C384.885956,672.888550 387.481140,673.353638 391.226685,673.608704 
	C389.485657,673.899963 387.744598,674.191223 386.003571,674.482483 
	C385.989777,674.933167 385.975983,675.383789 385.962189,675.834473 
	C391.711090,676.222046 397.462067,676.971375 403.208557,676.938354 
	C440.133575,676.726257 477.057465,676.328003 513.982178,676.049133 
	C516.446777,676.030457 518.914978,676.489502 521.436096,677.095215 
	C519.338684,677.670105 517.186646,677.876099 514.562622,678.054504 
	C495.065308,678.047791 476.040039,678.068604 456.545746,678.065063 
	C432.088593,677.976929 408.100494,677.913208 384.088867,677.390930 
	C384.048828,639.840942 384.095551,602.749268 383.929932,565.658569 
	C383.910767,561.368713 385.005219,559.833740 389.496674,559.912292 
	C403.296967,560.153625 417.104797,559.962646 430.909698,559.939697 
z"/>
<path fill="#39ABCF" opacity="1.000000" stroke="none" 
	d="
M384.191223,473.814728 
	C383.970764,464.779083 384.119385,455.636658 384.123352,446.494202 
	C384.140717,406.386841 384.116241,366.279449 384.107025,326.172089 
	C384.106689,324.691467 384.106964,323.210815 384.106964,321.275696 
	C385.753296,321.132080 387.170746,320.900696 388.588257,320.900421 
	C431.189667,320.892212 473.791138,320.873352 516.392334,320.975586 
	C520.178162,320.984650 523.961975,321.804657 527.981750,322.575562 
	C483.152832,322.554352 438.088959,322.204437 393.025024,321.860779 
	C391.028473,321.845551 389.031494,321.887299 386.302734,322.262817 
	C385.440979,323.270813 385.197235,323.918518 385.197571,324.566071 
	C385.224121,373.953094 385.269867,423.340118 385.314087,472.727112 
	C385.040619,473.054077 384.767151,473.381012 384.191223,473.814728 
z"/>
<path fill="#00ACE6" opacity="1.000000" stroke="none" 
	d="
M534.775024,193.522125 
	C501.019318,193.635391 467.102173,193.275635 433.184448,193.206131 
	C373.265808,193.083359 313.346832,193.136887 253.427979,193.122543 
	C252.597778,193.122345 251.767532,193.199539 250.458893,193.225159 
	C251.879349,192.810501 253.778061,192.063141 255.677185,192.062073 
	C346.776093,192.010635 437.875061,192.016800 528.973938,192.077454 
	C530.854004,192.078705 532.733521,192.796387 534.775024,193.522125 
z"/>
<path fill="#039CCA" opacity="1.000000" stroke="none" 
	d="
M210.099335,559.144897 
	C224.188599,558.860596 238.326508,558.860596 253.060715,558.860596 
	C253.060715,641.072937 253.060715,723.082092 253.042633,805.563660 
	C252.692978,803.618713 252.073212,801.201416 252.071594,798.783813 
	C252.020096,721.717834 252.029083,644.651855 252.027054,567.585876 
	C252.026855,559.999512 252.020569,560.066345 244.438217,559.980713 
	C233.007507,559.851624 221.578003,559.618225 210.099335,559.144897 
z"/>
<path fill="#039CCA" opacity="1.000000" stroke="none" 
	d="
M250.034149,193.311432 
	C250.300995,283.766968 250.296478,374.548859 250.285599,465.330719 
	C250.285217,468.495300 250.221649,471.659882 250.169098,475.258575 
	C249.776505,473.974457 249.075943,472.256409 249.074905,470.537964 
	C249.020142,379.850220 249.020721,289.162415 249.053513,198.474655 
	C249.054092,196.862274 249.515396,195.250061 250.034149,193.311432 
z"/>
<path fill="#0AD6FD" opacity="1.000000" stroke="none" 
	d="
M276.403381,808.279541 
	C346.720978,808.045532 417.378845,808.032349 488.501312,808.030457 
	C487.034943,808.363586 485.104187,808.965454 483.172943,808.966797 
	C416.006378,809.014587 348.839813,809.009277 281.673218,808.983826 
	C280.029968,808.983215 278.386810,808.668579 276.403381,808.279541 
z"/>
<path fill="#039CCA" opacity="1.000000" stroke="none" 
	d="
M430.926453,559.655762 
	C417.104797,559.962646 403.296967,560.153625 389.496674,559.912292 
	C385.005219,559.833740 383.910767,561.368713 383.929932,565.658569 
	C384.095551,602.749268 384.048828,639.840942 384.042969,677.634460 
	C384.020569,678.336609 383.954224,678.826660 383.954224,678.826660 
	C383.580017,677.876587 382.879883,676.927063 382.878510,675.976440 
	C382.823273,637.725098 382.830078,599.473633 382.840851,561.222229 
	C382.841034,560.598694 382.989014,559.975220 383.114868,558.981995 
	C398.892517,558.981995 414.483856,558.981995 430.539215,558.894165 
	C430.983246,558.994873 430.963226,559.183411 430.926453,559.655762 
z"/>
<path fill="#04CFFB" opacity="1.000000" stroke="none" 
	d="
M385.484711,472.385071 
	C385.269867,423.340118 385.224121,373.953094 385.197571,324.566071 
	C385.197235,323.918518 385.440979,323.270813 385.842590,322.303284 
	C386.074249,369.854553 386.038391,417.725739 385.979797,465.596863 
	C385.977173,467.745728 385.768188,469.894287 385.484711,472.385071 
z"/>
<path fill="#26A7CC" opacity="1.000000" stroke="none" 
	d="
M675.966797,473.332153 
	C676.623169,476.502075 677.252930,479.929840 677.476868,483.383942 
	C678.956543,506.206970 678.508179,528.917053 673.025757,551.683350 
	C673.328857,547.992371 673.856262,543.931641 674.123413,539.853882 
	C675.116882,524.688904 676.275696,509.527954 676.851929,494.345703 
	C677.113464,487.455017 676.156616,480.518097 675.966797,473.332153 
z"/>
<path fill="#26A7CC" opacity="1.000000" stroke="none" 
	d="
M600.756348,202.433075 
	C581.225220,199.901337 561.552795,197.062088 541.501099,194.118118 
	C546.165527,194.040634 551.284302,193.520340 556.238647,194.199768 
	C570.043030,196.092911 583.782532,198.462891 597.535583,200.718277 
	C598.610107,200.894455 599.590820,201.643005 600.756348,202.433075 
z"/>
<path fill="#26A7CC" opacity="1.000000" stroke="none" 
	d="
M813.820679,449.125732 
	C810.826477,435.566040 807.935913,421.503174 804.872803,407.477966 
	C804.028015,403.609924 802.668762,399.854248 801.469238,395.741791 
	C802.474609,397.493317 804.046265,399.435516 804.558472,401.625519 
	C807.790833,415.447113 810.828796,429.314972 813.812134,443.193085 
	C814.185608,444.930725 813.860596,446.818542 813.820679,449.125732 
z"/>
<path fill="#39ABCF" opacity="1.000000" stroke="none" 
	d="
M813.392212,551.760498 
	C814.333557,538.577881 815.594055,525.230286 817.026855,511.942017 
	C817.207092,515.258179 817.214966,518.515076 817.222839,521.771912 
	C816.475952,530.687012 815.762451,539.605164 814.937988,548.513062 
	C814.840210,549.569336 814.135010,550.569336 813.392212,551.760498 
z"/>
<path fill="#39ABCF" opacity="1.000000" stroke="none" 
	d="
M529.422729,323.248230 
	C535.616760,323.884888 542.178345,324.487366 548.650696,325.606323 
	C553.045227,326.366028 557.314453,327.850342 561.950073,329.182495 
	C558.393433,328.749023 554.509705,328.234009 550.663147,327.518555 
	C543.681152,326.220001 536.721436,324.802124 529.422729,323.248230 
z"/>
<path fill="#00ACE6" opacity="1.000000" stroke="none" 
	d="
M817.406982,521.433044 
	C817.214966,518.515076 817.207092,515.258179 817.131958,511.555176 
	C816.717041,500.041199 816.369263,488.973389 816.078735,477.485840 
	C816.741211,478.130554 817.871948,479.195007 817.872009,480.259521 
	C817.872559,493.871063 817.711243,507.482635 817.406982,521.433044 
z"/>
<path fill="#26A7CC" opacity="1.000000" stroke="none" 
	d="
M515.034668,678.082092 
	C517.186646,677.876099 519.338684,677.670105 521.834351,677.252014 
	C528.978271,676.658142 535.778564,676.276245 542.848938,675.946411 
	C534.043396,677.001221 524.967651,678.003967 515.447021,678.735474 
	C515.002136,678.464294 515.034668,678.082092 515.034668,678.082092 
z"/>
<path fill="#0AD6FD" opacity="1.000000" stroke="none" 
	d="
M497.378693,808.266357 
	C507.385529,808.021423 517.734680,808.000061 528.555542,807.988220 
	C525.643799,808.332092 522.260986,808.937012 518.876770,808.944580 
	C511.825226,808.960388 504.772980,808.660217 497.378693,808.266357 
z"/>
<path fill="#0AD6FD" opacity="1.000000" stroke="none" 
	d="
M253.336380,808.199951 
	C259.340912,807.978394 265.683105,807.999573 272.487915,808.035645 
	C266.525024,808.181335 260.099518,808.311951 253.336380,808.199951 
z"/>
<path fill="#39ABCF" opacity="1.000000" stroke="none" 
	d="
M374.612976,463.877167 
	C375.758331,464.736298 376.897308,465.951141 378.157837,467.458618 
	C377.055084,466.578522 375.830841,465.405701 374.612976,463.877167 
z"/>
<path fill="#39ABCF" opacity="1.000000" stroke="none" 
	d="
M366.704285,454.828491 
	C367.843933,455.742584 368.952179,456.992767 370.182312,458.542297 
	C369.093781,457.615906 367.883362,456.390198 366.704285,454.828491 
z"/>
<path fill="#39ABCF" opacity="1.000000" stroke="none" 
	d="
M378.264038,468.066101 
	C378.929779,468.420197 379.608582,469.113739 380.425995,470.070679 
	C379.802094,469.691254 379.039581,469.048401 378.264038,468.066101 
z"/>
<path fill="#39ABCF" opacity="1.000000" stroke="none" 
	d="
M352.193604,438.117584 
	C352.846405,438.524902 353.549683,439.266510 354.367981,440.300659 
	C353.736694,439.879456 352.990387,439.165649 352.193604,438.117584 
z"/>
<path fill="#39ABCF" opacity="1.000000" stroke="none" 
	d="
M372.119446,461.190094 
	C372.792145,461.521332 373.513977,462.183441 374.385834,463.108704 
	C373.746735,462.754913 372.957642,462.137939 372.119446,461.190094 
z"/>
<path fill="#39ABCF" opacity="1.000000" stroke="none" 
	d="
M349.280273,435.005951 
	C349.851501,435.207916 350.454956,435.739014 351.148987,436.566284 
	C350.597229,436.353333 349.954865,435.844208 349.280273,435.005951 
z"/>
<path fill="#39ABCF" opacity="1.000000" stroke="none" 
	d="
M361.040985,448.300903 
	C361.715118,448.715759 362.434052,449.455780 363.252747,450.496460 
	C362.596954,450.073395 361.841370,449.349731 361.040985,448.300903 
z"/>
<path fill="#39ABCF" opacity="1.000000" stroke="none" 
	d="
M344.107391,428.837341 
	C344.664032,429.105255 345.290161,429.719269 346.016296,430.646301 
	C345.469849,430.367371 344.823364,429.775421 344.107391,428.837341 
z"/>
<path fill="#39ABCF" opacity="1.000000" stroke="none" 
	d="
M346.118225,431.198486 
	C346.634583,431.411224 347.219757,431.933807 347.927856,432.730164 
	C347.429565,432.505432 346.808289,432.006866 346.118225,431.198486 
z"/>
<path fill="#39ABCF" opacity="1.000000" stroke="none" 
	d="
M363.295837,451.021027 
	C363.845734,451.239868 364.429565,451.782684 365.101135,452.617432 
	C364.569183,452.387939 363.949493,451.866455 363.295837,451.021027 
z"/>
<path fill="#39ABCF" opacity="1.000000" stroke="none" 
	d="
M359.119141,446.183960 
	C359.656525,446.392731 360.246765,446.913544 360.928833,447.720764 
	C360.404419,447.503479 359.788177,446.999756 359.119141,446.183960 
z"/>
<path fill="#39ABCF" opacity="1.000000" stroke="none" 
	d="
M365.157196,453.106628 
	C365.506073,453.152679 365.906158,453.491455 366.443146,454.064087 
	C366.122833,453.998474 365.665619,453.698944 365.157196,453.106628 
z"/>
<path fill="#39ABCF" opacity="1.000000" stroke="none" 
	d="
M348.074799,433.248169 
	C348.404358,433.382263 348.817627,433.811798 349.293945,434.548187 
	C348.957489,434.417908 348.557983,433.980804 348.074799,433.248169 
z"/>
<path fill="#39ABCF" opacity="1.000000" stroke="none" 
	d="
M562.728149,329.725891 
	C563.027405,329.657898 563.168518,329.867249 563.154419,330.345703 
	C562.854919,330.415649 562.711853,330.211792 562.728149,329.725891 
z"/>
<path fill="#39ABCF" opacity="1.000000" stroke="none" 
	d="
M351.213135,437.014252 
	C351.403961,436.961121 351.718536,437.158905 352.139221,437.622375 
	C351.942535,437.680389 351.639709,437.472778 351.213135,437.014252 
z"/>
<path fill="#0AD6FD" opacity="1.000000" stroke="none" 
	d="
M531.097778,808.086548 
	C531.146423,807.974609 531.315735,807.959595 531.738892,807.919495 
	C531.992737,807.894470 531.655090,808.197510 531.655090,808.197510 
	C531.655090,808.197510 531.218384,808.183472 531.097778,808.086548 
z"/>
<path fill="#39ABCF" opacity="1.000000" stroke="none" 
	d="
M354.462433,440.836975 
	C354.675171,440.796173 354.960144,441.024078 355.307129,441.529999 
	C355.091003,441.573914 354.812805,441.339813 354.462433,440.836975 
z"/>
<path fill="#39ABCF" opacity="1.000000" stroke="none" 
	d="
M355.315979,441.905670 
	C355.520386,441.848785 355.847656,442.047028 356.259216,442.531799 
	C356.041962,442.599152 355.740387,442.379974 355.315979,441.905670 
z"/>
<path fill="#39ABCF" opacity="1.000000" stroke="none" 
	d="
M356.305969,442.919678 
	C356.510315,442.874359 356.823914,443.090393 357.211365,443.594421 
	C356.995239,443.648590 356.705231,443.414825 356.305969,442.919678 
z"/>
<path fill="#39ABCF" opacity="1.000000" stroke="none" 
	d="
M357.248108,443.980133 
	C357.446198,443.937836 357.753540,444.154602 358.140930,444.653076 
	C357.933105,444.702942 357.645264,444.471069 357.248108,443.980133 
z"/>
<path fill="#39ABCF" opacity="1.000000" stroke="none" 
	d="
M358.185181,445.043274 
	C358.368805,445.012970 358.676270,445.218353 359.037476,445.705322 
	C358.830475,445.750885 358.569763,445.514923 358.185181,445.043274 
z"/>
<path fill="#26A7CC" opacity="1.000000" stroke="none" 
	d="
M813.977173,451.386536 
	C813.971436,451.360870 813.961670,451.373901 813.967285,451.418854 
	C813.972961,451.463806 813.982849,451.412201 813.977173,451.386536 
z"/>
<path fill="#39ABCF" opacity="1.000000" stroke="none" 
	d="
M370.241547,458.971954 
	C370.440399,458.941010 370.745392,459.165344 371.097595,459.680115 
	C370.879089,459.722778 370.613373,459.475006 370.241547,458.971954 
z"/>
<path fill="#39ABCF" opacity="1.000000" stroke="none" 
	d="
M382.382568,472.820557 
	C382.581238,472.773926 382.854279,472.980560 383.193115,473.440338 
	C382.991608,473.486908 382.724274,473.280365 382.382568,472.820557 
z"/>
<path fill="#39ABCF" opacity="1.000000" stroke="none" 
	d="
M381.429932,471.848511 
	C381.640717,471.772491 381.951508,471.954132 382.358398,472.401428 
	C382.146332,472.480133 381.838104,472.293182 381.429932,471.848511 
z"/>
<path fill="#39ABCF" opacity="1.000000" stroke="none" 
	d="
M380.683746,470.783875 
	C380.984955,470.656525 381.222961,470.870300 381.419678,471.415771 
	C381.204041,471.452789 380.951447,471.245331 380.683746,470.783875 
z"/>
<path fill="#39ABCF" opacity="1.000000" stroke="none" 
	d="
M371.168274,460.103119 
	C371.356018,460.053986 371.667542,460.241272 372.059052,460.699982 
	C371.856720,460.760773 371.574402,460.550140 371.168274,460.103119 
z"/>
<path fill="#26A7CC" opacity="1.000000" stroke="none" 
	d="
M384.420532,678.906372 
	C383.954224,678.826660 384.020569,678.336609 384.066467,678.093079 
	C408.100494,677.913208 432.088593,677.976929 456.552063,678.247803 
	C457.027374,678.455017 457.034882,678.822021 457.034882,678.822021 
	C432.985535,678.876709 408.936218,678.931458 384.420532,678.906372 
z"/>
<path fill="#039CCA" opacity="1.000000" stroke="none" 
	d="
M457.497833,678.880127 
	C457.034882,678.822021 457.027374,678.455017 457.021057,678.272217 
	C476.040039,678.068604 495.065308,678.047791 514.562622,678.054504 
	C515.034668,678.082092 515.002136,678.464294 514.986572,678.655396 
	C495.967651,678.877136 476.964203,678.907715 457.497833,678.880127 
z"/>
<path fill="#12C9F0" opacity="1.000000" stroke="none" 
	d="
M376.224670,806.497681 
	C374.729034,806.713562 372.870361,806.797424 370.731354,806.769043 
	C372.254578,806.559753 374.058105,806.462708 376.224670,806.497681 
z"/>
<path fill="#12C9F0" opacity="1.000000" stroke="none" 
	d="
M393.211060,806.506042 
	C391.714233,806.716125 389.855316,806.794556 387.716370,806.757080 
	C389.240540,806.552246 391.044739,806.463318 393.211060,806.506042 
z"/>
<path fill="#12C9F0" opacity="1.000000" stroke="none" 
	d="
M343.250427,806.506104 
	C342.351807,806.713623 341.127045,806.787415 339.668213,806.746948 
	C340.597504,806.545959 341.760895,806.459167 343.250427,806.506104 
z"/>
<path fill="#12C9F0" opacity="1.000000" stroke="none" 
	d="
M407.285950,806.512756 
	C406.667664,806.715576 405.751404,806.786926 404.634460,806.746704 
	C405.285156,806.550537 406.136566,806.465881 407.285950,806.512756 
z"/>
<path fill="#12C9F0" opacity="1.000000" stroke="none" 
	d="
M504.339172,806.524475 
	C503.976105,806.722595 503.357239,806.789673 502.581177,806.750854 
	C502.977112,806.561096 503.530273,806.477234 504.339172,806.524475 
z"/>
<path fill="#12C9F0" opacity="1.000000" stroke="none" 
	d="
M365.431885,806.506409 
	C365.281403,806.690308 364.937195,806.755249 364.495178,806.721497 
	C364.633636,806.386902 364.913879,806.308411 365.431885,806.506409 
z"/>
<path fill="#12C9F0" opacity="1.000000" stroke="none" 
	d="
M294.420715,806.518250 
	C294.270905,806.700867 293.928375,806.763306 293.486816,806.729431 
	C293.623779,806.396667 293.903839,806.318298 294.420715,806.518250 
z"/>
<path fill="#12C9F0" opacity="1.000000" stroke="none" 
	d="
M289.434753,806.511230 
	C289.284760,806.695190 288.938538,806.760559 288.491760,806.729370 
	C288.628967,806.394592 288.911407,806.314514 289.434753,806.511230 
z"/>
<path fill="#12C9F0" opacity="1.000000" stroke="none" 
	d="
M490.432068,806.507446 
	C490.283020,806.691345 489.937927,806.757935 489.492249,806.728088 
	C489.628204,806.393921 489.909637,806.313354 490.432068,806.507446 
z"/>
<path fill="#12C9F0" opacity="1.000000" stroke="none" 
	d="
M426.586792,806.558594 
	C426.674469,806.647461 426.372559,806.774719 426.350159,806.713013 
	C426.327728,806.651306 426.499115,806.469666 426.586792,806.558594 
z"/>
<path fill="#12C9F0" opacity="1.000000" stroke="none" 
	d="
M336.586670,806.562012 
	C336.672729,806.652100 336.370819,806.775330 336.349548,806.713623 
	C336.328247,806.651917 336.500580,806.471863 336.586670,806.562012 
z"/>
<path fill="#12C9F0" opacity="1.000000" stroke="none" 
	d="
M356.582825,806.552063 
	C356.666412,806.641479 356.369568,806.765015 356.350281,806.702698 
	C356.330963,806.640381 356.499268,806.462646 356.582825,806.552063 
z"/>
</svg>